:SAMPLES-PER-SECOND 30
:FULLY-SPECIFIED
:DEGREES
403
root  -8.21985 35.0551 -3.47473 -49.5083 23.3195 -144.477
Spine  26.5056 20.9341 37.0045
Spine1  25.8161 -45.8756 -37.3018
Neck  3.97569e-016 0 -2.38542e-015
Head  -5.13638 17.35 31.4877
R_Clavicle  -1.23743 19.0289 -2.54998
R_UpperArm  54.6364 58.5828 24.1058
R_Forearm  34.4887 -15.3732 13.1215
R_Hand  2.89156 15.6774 0.140773
L_Clavicle  -1.42625 12.5189 32.9158
L_UpperArm  73.6492 -66.8609 -122.728
L_Forearm  -22.4106 25.3027 27.155
L_Hand  15.3545 -37.4596 -48.3493
L_Thigh  -28.2175 36.0688 48.7849
L_Calf  -4.56092 -6.88615 43.6421
L_Foot  -0.107717 4.17874 -4.82157
L_Toe0  0.505156 0.0344454 -6.1361
R_Thigh  -13.8515 -56.214 10.4367
R_Calf  15.5844 -7.50188 -24.227
R_Foot  -1.99491 -0.731242 14.0403
R_Toe0  -1.78853 -0.270181 -17.3236
404
root  -6.831 34.4823 -2.46108 -65.9551 12.2119 -143.261
Spine  28.271 21.2498 38.947
Spine1  27.1177 -44.8913 -39.1139
Neck  3.97569e-016 0 -2.38542e-015
Head  -3.52694 16.9861 33.7218
R_Clavicle  -1.05964 18.6377 -2.07838
R_UpperArm  62.6763 52.2821 41.7042
R_Forearm  38.3216 -2.58685 2.12427
R_Hand  0.364065 16.9631 -13.3189
L_Clavicle  -1.31776 13.2533 37.31
L_UpperArm  80.4058 -71.2447 -126.671
L_Forearm  -16.3373 20.1649 19.288
L_Hand  16.0074 -42.3077 -44.0502
L_Thigh  -34.2763 31.7803 54.9271
L_Calf  -0.854025 -4.79938 37.699
L_Foot  0.734678 4.68509 -1.7371
L_Toe0  0.505156 0.0344454 -6.1361
R_Thigh  -15.2393 -54.7768 6.95207
R_Calf  17.4899 -7.91565 -25.646
R_Foot  -2.9883 -2.78025 14.8939
R_Toe0  -1.78853 -0.270183 -17.3236
405
root  -4.85855 34.0217 -2.20525 -82.7271 1.944 -139.054
Spine  29.7205 23.5046 40.0096
Spine1  26.6092 -43.8511 -39.2331
Neck  3.97569e-016 0 -2.38542e-015
Head  -4.25407 16.2733 36.5528
R_Clavicle  -0.510164 14.6123 -0.908791
R_UpperArm  68.0239 48.2366 52.5647
R_Forearm  47.2585 2.90053 -2.43936
R_Hand  -3.03422 17.0721 -29.234
L_Clavicle  -3.90914 6.00152 40.9097
L_UpperArm  87.4141 -85.1872 -126.827
L_Forearm  -11.9037 13.5677 12.1285
L_Hand  12.7592 -36.4447 -42.3616
L_Thigh  -33.954 28.5649 56.391
L_Calf  -2.68156 -3.92175 29.0628
L_Foot  1.45792 4.38791 1.549
L_Toe0  0.505156 0.0344454 -6.1361
R_Thigh  -13.6335 -52.8406 3.1254
R_Calf  16.0007 -7.65999 -24.7421
R_Foot  -2.70945 -2.47593 13.9322
R_Toe0  -1.78853 -0.270184 -17.3236
406
root  -2.85796 33.774 -3.01975 -101.144 -6.13947 -133.551
Spine  29.4306 25.7657 38.7681
Spine1  23.4829 -40.9468 -36.6931
Neck  3.97569e-016 0 -2.38542e-015
Head  -9.2518 14.4358 40.1733
R_Clavicle  -0.110527 9.42455 0.283769
R_UpperArm  75.0588 43.2544 58.5437
R_Forearm  52.4935 4.38425 -3.67752
R_Hand  -4.58075 13.3066 -39.7996
L_Clavicle  -5.78921 -1.67611 36.7099
L_UpperArm  -92.5896 -81.7772 65.0403
L_Forearm  9.1587 15.3778 14.1121
L_Hand  11.6825 -32.6674 -44.7833
L_Thigh  -36.1726 27.1287 50.4941
L_Calf  -2.35625 -3.40876 25.3679
L_Foot  0.98604 3.95464 0.0555002
L_Toe0  0.505156 0.0344454 -6.1361
R_Thigh  -8.33395 -50.5741 -4.26895
R_Calf  4.47368 -5.34585 -17.0213
R_Foot  -0.544917 1.91562 10.9255
R_Toe0  -1.78853 -0.270186 -17.3236
407
root  -1.57227 33.8431 -4.6862 -122.736 -11.1177 -126.742
Spine  26.6328 26.5662 34.2139
Spine1  18.8349 -34.2812 -31.8967
Neck  3.97569e-016 0 -2.38542e-015
Head  -15.7034 10.7817 42.5447
R_Clavicle  -0.00615996 9.41092 0.587922
R_UpperArm  85.4714 34.4434 56.3253
R_Forearm  51.6635 6.16815 -5.17636
R_Hand  -5.54267 11.4338 -47.4202
L_Clavicle  -5.38392 -5.04405 29.6393
L_UpperArm  -90.898 -65.4247 78.0918
L_Forearm  24.3814 15.9355 13.1352
L_Hand  17.426 -39.7622 -50.5053
L_Thigh  -38.6003 29.926 38.2343
L_Calf  -1.67244 -4.47965 30.364
L_Foot  1.20694 7.65789 -2.44025
L_Toe0  0.505156 0.0344454 -6.1361
R_Thigh  -0.540539 -46.6179 -14.4948
R_Calf  -10.2266 -0.0185867 -0.244583
R_Foot  2.6723 9.64476 2.85569
R_Toe0  -1.78853 -0.270189 -17.3236
408
root  -1.46948 34.5241 -6.15426 -147.95 -10.7291 -119.995
Spine  22.2975 24.1996 27.8217
Spine1  15.2878 -23.6512 -28.6576
Neck  3.97569e-016 0 -2.38542e-015
Head  -20.669 6.03482 43.2629
R_Clavicle  0.453815 11.5327 2.27683
R_UpperArm  94.9617 29.3383 51.2857
R_Forearm  50.2918 7.38974 -6.21068
R_Hand  -6.06312 10.3086 -52.3245
L_Clavicle  -8.52978 -8.51848 39.9103
L_UpperArm  -73.0527 -48.8508 64.1289
L_Forearm  38.2298 9.8029 7.12342
L_Hand  18.6001 -46.4152 -45.2418
L_Thigh  -29.5256 37.5218 22.6786
L_Calf  -11.2909 -8.15674 40.9953
L_Foot  2.71034 15.1371 -3.01512
L_Toe0  0.505156 0.0344454 -6.1361
R_Thigh  9.45001 -40.6537 -23.513
R_Calf  -17.027 6.23944 19.7401
R_Foot  5.43941 20.3381 -8.02143
R_Toe0  -1.78853 -0.270191 -17.3236
409
root  -1.87585 35.7835 -6.78891 -174.157 -6.61133 -119.023
Spine  17.199 17.13 19.5577
Spine1  12.0662 -9.86968 -28.4517
Neck  3.97569e-016 0 -2.38542e-015
Head  -24.4718 0.180713 43.1457
R_Clavicle  0.0325771 13.6523 0.783814
R_UpperArm  100.455 27.8484 52.5369
R_Forearm  47.1793 7.34331 -6.1714
R_Hand  -5.77856 10.0205 -51.0173
L_Clavicle  -19.5984 -22.0412 57.9254
L_UpperArm  -53.7263 -18.3477 44.056
L_Forearm  55.9133 0.938417 3.13801
L_Hand  4.25013 -22.1291 -26.8553
L_Thigh  -12.5207 45.1442 7.34027
L_Calf  -29.6309 -9.6156 47.8758
L_Foot  5.12678 20.1793 0.662952
L_Toe0  0.505156 0.0344454 -6.1361
R_Thigh  19.9038 -35.5907 -27.5607
R_Calf  -18.5106 10.01 33.1118
R_Foot  6.11223 27.1509 -14.733
R_Toe0  -1.78853 -0.270194 -17.3236
410
root  -2.15636 36.7645 -6.75324 163.147 -6.95358 -125.073
Spine  11.0475 8.98704 8.91526
Spine1  7.39848 0.319111 -28.593
Neck  3.97569e-016 0 -2.38542e-015
Head  -26.4498 -4.95062 42.9097
R_Clavicle  -2.15025 21.1065 -4.75192
R_UpperArm  104.1 21.1763 60.3382
R_Forearm  39.5687 7.31305 -6.14668
R_Hand  -4.7284 8.52612 -46.4606
L_Clavicle  -33.6176 -40.122 66.81
L_UpperArm  -48.4725 13.6337 37.6758
L_Forearm  51.6905 2.52207 13.7714
L_Hand  -8.41746 -19.9728 -23.4429
L_Thigh  -16.7103 44.8666 -2.02796
L_Calf  -27.1655 -7.1502 48.7371
L_Foot  6.3406 20.2228 3.8139
L_Toe0  0.505156 0.0344454 -6.1361
R_Thigh  23.8588 -33.4568 -27.4535
R_Calf  -18.7891 11.3085 38.2648
R_Foot  5.91323 28.3559 -17.1048
R_Toe0  -1.78853 -0.270198 -17.3236
411
root  -2.12211 37.1667 -6.6101 144.144 -14.3093 -131.89
Spine  6.42359 6.39584 0.0309451
Spine1  4.32543 -1.48464 -30.4479
Neck  3.97569e-016 0 -2.38542e-015
Head  -26.7758 -6.29699 42.9353
R_Clavicle  -3.38627 28.4068 -6.772
R_UpperArm  104.437 14.1681 64.801
R_Forearm  29.6087 5.25088 -4.40579
R_Hand  -3.79083 4.60395 -46.072
L_Clavicle  -23.8154 -51.9352 41.7357
L_UpperArm  -48.7813 3.60747 48.4722
L_Forearm  -14.7082 28.3693 56.9125
L_Hand  12.5422 -6.1602 -88.3189
L_Thigh  -15.2734 40.5062 -1.50117
L_Calf  -28.0055 -9.41373 51.1828
L_Foot  5.91086 19.9768 2.85531
L_Toe0  0.505156 0.0344454 -6.1361
R_Thigh  20.8777 -33.8508 -24.5307
R_Calf  -18.1898 11.7014 40.006
R_Foot  5.74921 29.6698 -19.2713
R_Toe0  -1.78853 -0.270202 -17.3236
412
root  -1.76076 37.133 -6.64894 124.922 -24.4252 -135.35
Spine  4.96677 9.19804 -3.8132
Spine1  5.50155 -10.8656 -35.9469
Neck  3.97569e-016 0 -2.38542e-015
Head  -27.249 -4.92997 41.9595
R_Clavicle  0.779455 32.5986 2.9874
R_UpperArm  103.968 17.5756 63.559
R_Forearm  20.0257 -5.79515 4.80822
R_Hand  -4.91705 8.6526 -47.129
L_Clavicle  -4.40582 -27.0931 14.3831
L_UpperArm  -45.7769 -17.4398 68.5694
L_Forearm  -17.8947 37.0902 68.1446
L_Hand  -10.7477 -5.74945 -133.382
L_Thigh  -12.9643 39.3488 2.37764
L_Calf  -30.1458 -10.2379 53.3757
L_Foot  5.96343 20.8673 2.36834
L_Toe0  0.505156 0.0344454 -6.1361
R_Thigh  18.3736 -35.7964 -17.9145
R_Calf  -20.2984 11.3946 38.5633
R_Foot  5.76937 30.9022 -20.1011
R_Toe0  -1.78853 -0.270206 -17.3236
